# xmcd
# 
# Track frame offsets:
#     182
#     9440
#     19432
#     34600
#     47662
#     63642
#     79207
#     88600
#     97425
#     107697
#     121322
#     131405
#     143915
#     153997
#     164675
#     177210
#     189487
#     200950
#     212355
#     224985
#     237580
#     249280
# 
# Disc length: 3489
# 
# Revision: 0
# Processed by: cddbd v1.5.2PL0 Copyright (c) Steve Scherf et al.
# Submitted via: BonkEnc v1.0.15
# 
DISCID=480d9f16
DTITLE=Various Artist - Country Round-Up
DYEAR=1989
DGENRE=Country
TTITLE0=Frankie Laine - Rawhide
TTITLE1=Johnny Cash  - Hey Porter
TTITLE2=Willie Nelson - Face of a Fighter
TTITLE3=Frankie Laine - Moonlight Gambler
TTITLE4=Billie Jo Spears - Queen of the Silver Dollar
TTITLE5=Kenny Rogers - Tulsa Turnaround
TTITLE6=Johnny Cash - Luther played Boogie
TTITLE7=Jim Reeves - Yonder comes a Sucker(Live in the Opry)
TTITLE8=Billie Jo Spears - I'm gonna be a Country Girl again
TTITLE9=Kenny Rogers - Shine on Ruby Mountain
TTITLE10=Don Williams - Take my Hand for a while
TTITLE11=Johnny Cash - Folsom Prison Blues
TTITLE12=Jim Reeves - He'll have to go(Live at the Opry)
TTITLE13=Frankie Laine - 16 Tons
TTITLE14=Gram Parsons and Emmylou Harris - That's all i took
TTITLE15=Billie Jo Spears - What i've got in Mind
TTITLE16=George Jones - I can't change Overnight
TTITLE17=Johnny Cash - Big River
TTITLE18=Kenny Rogers - Reuben James
TTITLE19=Frankie Laine - High Noon(Do not Forsake me)
TTITLE20=Willie Nelson - Is there something ony your Mind
TTITLE21=Johnny Cash - I Walk the Line
EXTD=
EXTT0=
EXTT1=
EXTT2=
EXTT3=
EXTT4=
EXTT5=
EXTT6=
EXTT7=
EXTT8=
EXTT9=
EXTT10=
EXTT11=
EXTT12=
EXTT13=
EXTT14=
EXTT15=
EXTT16=
EXTT17=
EXTT18=
EXTT19=
EXTT20=
EXTT21=
PLAYORDER=
